<svg xmlns="http://www.w3.org/2000/svg" width="226" height="28" viewBox="0 0 226 28"><g fill="none" fill-rule="evenodd"><path fill="#FFF" d="M174.04 4h6.288v20h-6.289V12.131h-.524L169.847 24h-4.367l-3.668-11.878h-.524V24H155V4h6.288s2.76-.009 3.494 2.62c.68 2.454 2.62 9.258 2.62 9.258h.524c.052-.184 1.947-6.839 2.62-9.25.733-2.628 3.484-2.619 3.493-2.619V4zm22.969 0h5.939v20h-6.289V12.122h-.524l-4.366 9.782c-.865 1.921-2.795 2.096-2.795 2.096h-5.94V4h6.29v11.878h.523l4.454-9.782C195.166 4.166 197.01 4 197.01 4zm8.733 9.083h19.52a6.804 6.804 0 0 1-6.42 4.541h-6.811V24h-6.289V13.083z"/><path fill="#CED4DA" d="M218.843 4H204.86a10.046 10.046 0 0 0 7.25 7.86c.838.227 1.72.35 2.628.35h10.777c.096-.455.14-.917.14-1.398A6.81 6.81 0 0 0 218.843 4z"/><path fill="#DEE2E6" d="M116.7 0c7.562-.044 13.734 6.038 13.8 13.6 0 7.622-6.178 13.8-13.8 13.8-7.622 0-13.8-6.178-13.8-13.8.066-7.562 6.238-13.644 13.8-13.6z"/><path fill="#FFF" fill-rule="nonzero" d="M111.6 13.6c-.066 7.562-6.238 13.644-13.8 13.6-7.562.044-13.734-6.038-13.8-13.6C84.066 6.038 90.238-.044 97.8 0c7.562-.044 13.734 6.038 13.8 13.6z"/><path fill="#FFF" d="M5.019 7.874A16.098 16.098 0 0 0 0 5.9v-.4h7.8c1.1 0 2.1.4 2.1 1.8l1.682 7.943c.041.118.08.237.118.357l.4 2.5 4.6-12.8h4.9v.1l-7.4 18.8h-5L5.019 7.874zM25.5 24.1h-4.9l3.1-18.7h5l-3.2 18.7zM43.2 5.7l-.7 3.9-.4-.4a9.76 9.76 0 0 0-3.5-.7c-2.1 0-2.8 1.1-2.8 1.8 0 1.1 1 1.8 2.8 2.5 2.5 1.1 3.9 2.9 3.9 5 0 3.9-3.5 6.4-8.5 6.4a16.28 16.28 0 0 1-5.3-1.1l.7-4.3.7.4a11.07 11.07 0 0 0 4.6 1.1c1.4 0 2.8-.4 2.8-1.8 0-1.1-.7-1.4-2.5-2.5-1.8-.7-4.3-2.2-4.3-5 0-3.5 3.6-6 8.2-6a12.42 12.42 0 0 1 4.3.7zm12.1-.3l4.3 18.4H55a15.88 15.88 0 0 1-.7-2.8h-6.4a11.41 11.41 0 0 0-1.1 2.8h-5l7.1-17a2.48 2.48 0 0 1 2.5-1.4h3.9zm-5.7 12h4c0-.7-1.1-5.3-1.1-5.3l-.4-1.8c-.3.7-.7 1.8-.7 1.8s-1.4 4.2-1.8 5.3z"/></g></svg>